<mxfile host="65bd71144e">
    <diagram id="JWOd1Y1STweNd_1H4bQu" name="Page-1">
        <mxGraphModel dx="749" dy="579" grid="0" gridSize="10" guides="1" tooltips="1" connect="1" arrows="1" fold="1" page="1" pageScale="1" pageWidth="1200" pageHeight="1920" background="#ffffff" math="0" shadow="0">
            <root>
                <mxCell id="0"/>
                <mxCell id="1" parent="0"/>
                <mxCell id="81" style="edgeStyle=none;html=1;entryX=0;entryY=0.5;entryDx=0;entryDy=0;strokeWidth=2;strokeColor=#000000;" parent="1" source="79" target="80" edge="1">
                    <mxGeometry relative="1" as="geometry"/>
                </mxCell>
                <mxCell id="79" value="Front-end" style="rounded=0;whiteSpace=wrap;html=1;" parent="1" vertex="1">
                    <mxGeometry x="140" y="260" width="120" height="200" as="geometry"/>
                </mxCell>
                <mxCell id="116" style="edgeStyle=none;html=1;entryX=0;entryY=0.75;entryDx=0;entryDy=0;labelBackgroundColor=#00FF00;fontFamily=Helvetica;fontColor=#FFFFFF;strokeWidth=2;strokeColor=#B09500;fillColor=#e3c800;" parent="1" source="80" target="82" edge="1">
                    <mxGeometry relative="1" as="geometry"/>
                </mxCell>
                <mxCell id="117" style="edgeStyle=none;html=1;labelBackgroundColor=#00FF00;fontFamily=Helvetica;fontColor=#FFFFFF;strokeWidth=2;strokeColor=#B09500;fillColor=#e3c800;" parent="1" source="80" target="84" edge="1">
                    <mxGeometry relative="1" as="geometry"/>
                </mxCell>
                <mxCell id="118" style="edgeStyle=none;html=1;entryX=0;entryY=0.25;entryDx=0;entryDy=0;labelBackgroundColor=#00FF00;fontFamily=Helvetica;fontColor=#FFFFFF;strokeWidth=2;strokeColor=#B09500;fillColor=#e3c800;" parent="1" source="80" target="83" edge="1">
                    <mxGeometry relative="1" as="geometry"/>
                </mxCell>
                <mxCell id="80" value="Login" style="ellipse;whiteSpace=wrap;html=1;aspect=fixed;fillColor=#6a00ff;strokeColor=#3700CC;fontColor=#ffffff;" parent="1" vertex="1">
                    <mxGeometry x="295" y="315" width="80" height="80" as="geometry"/>
                </mxCell>
                <mxCell id="86" style="edgeStyle=none;html=1;entryX=0;entryY=0.5;entryDx=0;entryDy=0;fontFamily=Helvetica;fillColor=#60a917;strokeColor=#2D7600;" parent="1" source="82" target="85" edge="1">
                    <mxGeometry relative="1" as="geometry"/>
                </mxCell>
                <mxCell id="95" style="edgeStyle=none;html=1;entryX=0.062;entryY=0.283;entryDx=0;entryDy=0;entryPerimeter=0;fontFamily=Helvetica;fontColor=#33FF33;labelBackgroundColor=#00FF00;fillColor=#60a917;strokeColor=#2D7600;" parent="1" source="82" target="89" edge="1">
                    <mxGeometry relative="1" as="geometry"/>
                </mxCell>
                <mxCell id="96" style="edgeStyle=none;html=1;entryX=0;entryY=0;entryDx=0;entryDy=0;labelBackgroundColor=#00FF00;fontFamily=Helvetica;fontColor=#33FF33;fillColor=#60a917;strokeColor=#2D7600;" parent="1" source="82" target="93" edge="1">
                    <mxGeometry relative="1" as="geometry"/>
                </mxCell>
                <mxCell id="138" style="edgeStyle=none;html=1;fontColor=#FF3333;fillColor=#60a917;strokeColor=#2D7600;" parent="1" source="82" target="129" edge="1">
                    <mxGeometry relative="1" as="geometry">
                        <mxPoint x="910" y="40" as="targetPoint"/>
                        <Array as="points">
                            <mxPoint x="740" y="60"/>
                            <mxPoint x="900" y="70"/>
                        </Array>
                    </mxGeometry>
                </mxCell>
                <mxCell id="82" value="&lt;font style=&quot;font-size: 17px&quot;&gt;ADMIN role&lt;/font&gt;" style="shape=hexagon;perimeter=hexagonPerimeter2;whiteSpace=wrap;html=1;fixedSize=1;size=25;" parent="1" vertex="1">
                    <mxGeometry x="440" y="160" width="120" height="80" as="geometry"/>
                </mxCell>
                <mxCell id="102" style="edgeStyle=none;html=1;entryX=0;entryY=0.5;entryDx=0;entryDy=0;labelBackgroundColor=#00FF00;fontFamily=Helvetica;fontColor=#33FF33;strokeWidth=2;strokeColor=#B09500;fillColor=#e3c800;" parent="1" source="83" target="101" edge="1">
                    <mxGeometry relative="1" as="geometry"/>
                </mxCell>
                <mxCell id="108" style="edgeStyle=none;html=1;entryX=0;entryY=0;entryDx=0;entryDy=0;labelBackgroundColor=#00FF00;fontFamily=Helvetica;fontColor=#33FF33;fillColor=#60a917;strokeColor=#2D7600;" parent="1" source="83" target="101" edge="1">
                    <mxGeometry relative="1" as="geometry"/>
                </mxCell>
                <mxCell id="109" style="edgeStyle=none;html=1;entryX=0.5;entryY=1;entryDx=0;entryDy=0;labelBackgroundColor=#00FF00;fontFamily=Helvetica;fontColor=#33FF33;fillColor=#60a917;strokeColor=#2D7600;" parent="1" source="83" target="105" edge="1">
                    <mxGeometry relative="1" as="geometry">
                        <Array as="points">
                            <mxPoint x="610" y="560"/>
                            <mxPoint x="690" y="580"/>
                            <mxPoint x="780" y="570"/>
                        </Array>
                    </mxGeometry>
                </mxCell>
                <mxCell id="114" style="edgeStyle=none;html=1;entryX=0.004;entryY=0.409;entryDx=0;entryDy=0;entryPerimeter=0;labelBackgroundColor=#00FF00;fontFamily=Helvetica;fontColor=#FFFFFF;fillColor=#60a917;strokeColor=#2D7600;" parent="1" source="83" target="112" edge="1">
                    <mxGeometry relative="1" as="geometry"/>
                </mxCell>
                <mxCell id="83" value="&lt;div class=&quot;QmZWSe&quot;&gt;&lt;div class=&quot;DHcWmd&quot;&gt;&lt;/div&gt;&lt;/div&gt;&lt;div class=&quot;oSioSc&quot;&gt;&lt;div id=&quot;tw-target&quot;&gt;&lt;div id=&quot;kAz1tf&quot; class=&quot;g9WsWb&quot;&gt;&lt;div class=&quot;tw-ta-container F0azHf tw-nfl&quot; id=&quot;tw-target-text-container&quot; tabindex=&quot;0&quot; style=&quot;font-size: 15px&quot;&gt;&lt;div dir=&quot;ltr&quot; style=&quot;text-align: left&quot; id=&quot;tw-target-text&quot; class=&quot;tw-data-text tw-text-large tw-ta&quot;&gt;HR&lt;span&gt;&amp;nbsp;role&lt;/span&gt;&lt;/div&gt;&lt;/div&gt;&lt;/div&gt;&lt;/div&gt;&lt;/div&gt;" style="shape=hexagon;perimeter=hexagonPerimeter2;whiteSpace=wrap;html=1;fixedSize=1;size=25;fontFamily=Helvetica;" parent="1" vertex="1">
                    <mxGeometry x="440" y="450" width="120" height="80" as="geometry"/>
                </mxCell>
                <mxCell id="88" style="edgeStyle=none;html=1;entryX=0;entryY=0.5;entryDx=0;entryDy=0;fontFamily=Helvetica;strokeWidth=2;strokeColor=#B09500;fillColor=#e3c800;" parent="1" source="84" target="85" edge="1">
                    <mxGeometry relative="1" as="geometry"/>
                </mxCell>
                <mxCell id="99" style="edgeStyle=none;html=1;entryX=0.5;entryY=1;entryDx=0;entryDy=0;labelBackgroundColor=#00FF00;fontFamily=Helvetica;fontColor=#33FF33;fillColor=#60a917;strokeColor=#2D7600;" parent="1" source="84" target="85" edge="1">
                    <mxGeometry relative="1" as="geometry"/>
                </mxCell>
                <mxCell id="100" style="edgeStyle=none;html=1;entryX=0;entryY=0.5;entryDx=0;entryDy=0;labelBackgroundColor=#00FF00;fontFamily=Helvetica;fontColor=#33FF33;fillColor=#60a917;strokeColor=#2D7600;" parent="1" source="84" target="97" edge="1">
                    <mxGeometry relative="1" as="geometry"/>
                </mxCell>
                <mxCell id="84" value="&lt;font style=&quot;font-size: 15px&quot;&gt;CANDIDATE&amp;nbsp;&lt;br&gt;role&lt;/font&gt;" style="shape=hexagon;perimeter=hexagonPerimeter2;whiteSpace=wrap;html=1;fixedSize=1;size=25;" parent="1" vertex="1">
                    <mxGeometry x="440" y="310" width="120" height="80" as="geometry"/>
                </mxCell>
                <mxCell id="90" style="edgeStyle=none;html=1;fontFamily=Helvetica;strokeWidth=2;strokeColor=#B09500;fillColor=#e3c800;" parent="1" source="85" target="89" edge="1">
                    <mxGeometry relative="1" as="geometry">
                        <mxPoint x="780" y="150" as="targetPoint"/>
                    </mxGeometry>
                </mxCell>
                <mxCell id="94" style="edgeStyle=none;html=1;entryX=0;entryY=0.5;entryDx=0;entryDy=0;fontFamily=Helvetica;strokeWidth=2;strokeColor=#B09500;fillColor=#e3c800;" parent="1" source="85" target="93" edge="1">
                    <mxGeometry relative="1" as="geometry"/>
                </mxCell>
                <mxCell id="98" style="edgeStyle=none;html=1;entryX=0;entryY=0.5;entryDx=0;entryDy=0;labelBackgroundColor=#00FF00;fontFamily=Helvetica;fontColor=#33FF33;strokeWidth=2;strokeColor=#B09500;fillColor=#e3c800;" parent="1" source="85" target="97" edge="1">
                    <mxGeometry relative="1" as="geometry"/>
                </mxCell>
                <mxCell id="140" style="edgeStyle=none;html=1;fontColor=#FFFFFF;strokeColor=#B09500;strokeWidth=1;fillColor=#e3c800;" parent="1" source="85" edge="1">
                    <mxGeometry relative="1" as="geometry">
                        <mxPoint x="800" y="287" as="targetPoint"/>
                    </mxGeometry>
                </mxCell>
                <mxCell id="152" style="edgeStyle=none;html=1;fillColor=#f0a30a;strokeColor=#BD7000;entryX=0.5;entryY=0;entryDx=0;entryDy=0;" edge="1" parent="1" source="85" target="153">
                    <mxGeometry relative="1" as="geometry">
                        <mxPoint x="725.2001342773438" y="354.5999755859375" as="targetPoint"/>
                    </mxGeometry>
                </mxCell>
                <mxCell id="85" value="LIST TEST" style="whiteSpace=wrap;html=1;aspect=fixed;fontFamily=Helvetica;fillColor=#6a00ff;strokeColor=#3700CC;fontColor=#ffffff;" parent="1" vertex="1">
                    <mxGeometry x="650" y="220" width="80" height="80" as="geometry"/>
                </mxCell>
                <mxCell id="130" style="edgeStyle=none;html=1;entryX=0;entryY=0.5;entryDx=0;entryDy=0;strokeWidth=2;strokeColor=#B09500;fillColor=#e3c800;" parent="1" source="89" target="129" edge="1">
                    <mxGeometry relative="1" as="geometry"/>
                </mxCell>
                <mxCell id="89" value="ADD Test" style="ellipse;whiteSpace=wrap;html=1;fontFamily=Helvetica;fillColor=#6a00ff;strokeColor=#3700CC;fontColor=#ffffff;" parent="1" vertex="1">
                    <mxGeometry x="790" y="100" width="90" height="60" as="geometry"/>
                </mxCell>
                <mxCell id="131" style="edgeStyle=none;html=1;entryX=0;entryY=0.5;entryDx=0;entryDy=0;strokeWidth=2;strokeColor=#B09500;fillColor=#e3c800;" parent="1" source="93" target="129" edge="1">
                    <mxGeometry relative="1" as="geometry"/>
                </mxCell>
                <mxCell id="93" value="EDIT Test" style="ellipse;whiteSpace=wrap;html=1;fontFamily=Helvetica;fillColor=#6a00ff;strokeColor=#3700CC;fontColor=#ffffff;" parent="1" vertex="1">
                    <mxGeometry x="790" y="210" width="90" height="60" as="geometry"/>
                </mxCell>
                <mxCell id="104" style="edgeStyle=none;html=1;entryX=0;entryY=0;entryDx=0;entryDy=0;labelBackgroundColor=#00FF00;fontFamily=Helvetica;fontColor=#33FF33;strokeWidth=2;strokeColor=#B09500;fillColor=#e3c800;" parent="1" source="97" target="103" edge="1">
                    <mxGeometry relative="1" as="geometry"/>
                </mxCell>
                <mxCell id="143" style="edgeStyle=none;html=1;fontColor=#000000;strokeColor=#000000;strokeWidth=1;" parent="1" source="97" edge="1" target="144">
                    <mxGeometry relative="1" as="geometry">
                        <mxPoint x="906.7999877929688" y="329.8000183105469" as="targetPoint"/>
                    </mxGeometry>
                </mxCell>
                <mxCell id="97" value="&lt;font color=&quot;#ffffff&quot;&gt;Take a Test&lt;/font&gt;" style="ellipse;whiteSpace=wrap;html=1;fontFamily=Helvetica;fontColor=#ffffff;fillColor=#6a00ff;strokeColor=#3700CC;" parent="1" vertex="1">
                    <mxGeometry x="810" y="305" width="90" height="70" as="geometry"/>
                </mxCell>
                <mxCell id="106" style="edgeStyle=none;html=1;entryX=0.022;entryY=0.391;entryDx=0;entryDy=0;entryPerimeter=0;labelBackgroundColor=#00FF00;fontFamily=Helvetica;fontColor=#33FF33;strokeWidth=2;strokeColor=#B09500;fillColor=#e3c800;" parent="1" source="101" target="105" edge="1">
                    <mxGeometry relative="1" as="geometry"/>
                </mxCell>
                <mxCell id="101" value="&lt;font color=&quot;#fefaff&quot;&gt;LIST Candidate&lt;/font&gt;" style="whiteSpace=wrap;html=1;aspect=fixed;fontFamily=Helvetica;fontColor=#ffffff;fillColor=#6a00ff;strokeColor=#3700CC;" parent="1" vertex="1">
                    <mxGeometry x="650" y="450" width="80" height="80" as="geometry"/>
                </mxCell>
                <mxCell id="107" style="edgeStyle=none;html=1;entryX=1;entryY=0;entryDx=0;entryDy=0;labelBackgroundColor=#00FF00;fontFamily=Helvetica;fontColor=#33FF33;strokeWidth=2;strokeColor=#B09500;fillColor=#e3c800;" parent="1" source="103" target="105" edge="1">
                    <mxGeometry relative="1" as="geometry"/>
                </mxCell>
                <mxCell id="103" value="submit" style="rhombus;whiteSpace=wrap;html=1;fontFamily=Helvetica;fontColor=#33FF33;" parent="1" vertex="1">
                    <mxGeometry x="900" y="390" width="70" height="70" as="geometry"/>
                </mxCell>
                <mxCell id="105" value="&lt;font color=&quot;#ffffff&quot;&gt;Test With Candidate&lt;/font&gt;" style="ellipse;whiteSpace=wrap;html=1;fontFamily=Helvetica;fontColor=#ffffff;fillColor=#6a00ff;strokeColor=#3700CC;" parent="1" vertex="1">
                    <mxGeometry x="790" y="460" width="90" height="70" as="geometry"/>
                </mxCell>
                <mxCell id="113" style="edgeStyle=none;html=1;entryX=0.5;entryY=1;entryDx=0;entryDy=0;labelBackgroundColor=#00FF00;fontFamily=Helvetica;fontColor=#FFFFFF;strokeWidth=2;strokeColor=#B09500;fillColor=#e3c800;" parent="1" source="112" target="101" edge="1">
                    <mxGeometry relative="1" as="geometry"/>
                </mxCell>
                <mxCell id="112" value="EDIT&amp;nbsp;&lt;br&gt;candidate" style="ellipse;whiteSpace=wrap;html=1;fontFamily=Helvetica;fontColor=#ffffff;fillColor=#6a00ff;strokeColor=#3700CC;" parent="1" vertex="1">
                    <mxGeometry x="786" y="587" width="106" height="70" as="geometry"/>
                </mxCell>
                <mxCell id="119" value="1" style="text;html=1;strokeColor=none;fillColor=none;align=center;verticalAlign=middle;whiteSpace=wrap;rounded=0;fontFamily=Helvetica;fontColor=#000000;" parent="1" vertex="1">
                    <mxGeometry x="315" y="280" width="40" height="20" as="geometry"/>
                </mxCell>
                <mxCell id="120" value="2" style="text;html=1;strokeColor=none;fillColor=none;align=center;verticalAlign=middle;whiteSpace=wrap;rounded=0;fontFamily=Helvetica;fontColor=#000000;" parent="1" vertex="1">
                    <mxGeometry x="670" y="190" width="40" height="20" as="geometry"/>
                </mxCell>
                <mxCell id="121" value="3" style="text;html=1;strokeColor=none;fillColor=none;align=center;verticalAlign=middle;whiteSpace=wrap;rounded=0;fontFamily=Helvetica;fontColor=#000000;" parent="1" vertex="1">
                    <mxGeometry x="670" y="415" width="40" height="20" as="geometry"/>
                </mxCell>
                <mxCell id="122" value="4" style="text;html=1;strokeColor=none;fillColor=none;align=center;verticalAlign=middle;whiteSpace=wrap;rounded=0;fontFamily=Helvetica;fontColor=#000000;" parent="1" vertex="1">
                    <mxGeometry x="815" y="70" width="40" height="20" as="geometry"/>
                </mxCell>
                <mxCell id="123" value="5" style="text;html=1;strokeColor=none;fillColor=none;align=center;verticalAlign=middle;whiteSpace=wrap;rounded=0;fontFamily=Helvetica;fontColor=#000000;" parent="1" vertex="1">
                    <mxGeometry x="815" y="180" width="40" height="20" as="geometry"/>
                </mxCell>
                <mxCell id="124" value="6" style="text;html=1;strokeColor=none;fillColor=none;align=center;verticalAlign=middle;whiteSpace=wrap;rounded=0;fontFamily=Helvetica;fontColor=#000000;" parent="1" vertex="1">
                    <mxGeometry x="872" y="297" width="40" height="20" as="geometry"/>
                </mxCell>
                <mxCell id="125" value="7" style="text;html=1;strokeColor=none;fillColor=none;align=center;verticalAlign=middle;whiteSpace=wrap;rounded=0;fontFamily=Helvetica;fontColor=#000000;" parent="1" vertex="1">
                    <mxGeometry x="815" y="430" width="40" height="20" as="geometry"/>
                </mxCell>
                <mxCell id="126" value="8" style="text;html=1;strokeColor=none;fillColor=none;align=center;verticalAlign=middle;whiteSpace=wrap;rounded=0;fontFamily=Helvetica;fontColor=#000000;" parent="1" vertex="1">
                    <mxGeometry x="830" y="570" width="40" height="20" as="geometry"/>
                </mxCell>
                <mxCell id="127" value="9" style="text;html=1;strokeColor=none;fillColor=none;align=center;verticalAlign=middle;whiteSpace=wrap;rounded=0;fontFamily=Helvetica;fontColor=#000000;" parent="1" vertex="1">
                    <mxGeometry x="643" y="678" width="40" height="20" as="geometry"/>
                </mxCell>
                <mxCell id="132" style="edgeStyle=none;html=1;strokeWidth=2;strokeColor=#B09500;fillColor=#e3c800;" parent="1" source="129" edge="1">
                    <mxGeometry relative="1" as="geometry">
                        <mxPoint x="1090" y="230" as="targetPoint"/>
                        <Array as="points">
                            <mxPoint x="1060" y="250"/>
                        </Array>
                    </mxGeometry>
                </mxCell>
                <mxCell id="133" style="edgeStyle=none;html=1;strokeWidth=2;strokeColor=#B09500;fillColor=#e3c800;" parent="1" source="129" edge="1">
                    <mxGeometry relative="1" as="geometry">
                        <mxPoint x="1090" y="300" as="targetPoint"/>
                    </mxGeometry>
                </mxCell>
                <mxCell id="134" style="edgeStyle=none;html=1;strokeWidth=2;strokeColor=#B09500;fillColor=#e3c800;" parent="1" source="129" edge="1">
                    <mxGeometry relative="1" as="geometry">
                        <mxPoint x="1090" y="360" as="targetPoint"/>
                        <Array as="points">
                            <mxPoint x="1060" y="250"/>
                        </Array>
                    </mxGeometry>
                </mxCell>
                <mxCell id="129" value="QUESTION bank" style="rhombus;whiteSpace=wrap;html=1;fillColor=#6a00ff;fontColor=#ffffff;strokeColor=#3700CC;" parent="1" vertex="1">
                    <mxGeometry x="960" y="140" width="120" height="80" as="geometry"/>
                </mxCell>
                <mxCell id="135" value="ADD question" style="text;html=1;strokeColor=none;fillColor=none;align=center;verticalAlign=middle;whiteSpace=wrap;rounded=0;fontColor=#FF3333;" parent="1" vertex="1">
                    <mxGeometry x="1090" y="220" width="60" height="30" as="geometry"/>
                </mxCell>
                <mxCell id="136" value="EDIT question" style="text;html=1;strokeColor=none;fillColor=none;align=center;verticalAlign=middle;whiteSpace=wrap;rounded=0;fontColor=#FF3333;" parent="1" vertex="1">
                    <mxGeometry x="1100" y="280" width="60" height="30" as="geometry"/>
                </mxCell>
                <mxCell id="137" value="DELETE" style="text;html=1;strokeColor=none;fillColor=none;align=center;verticalAlign=middle;whiteSpace=wrap;rounded=0;fontColor=#FF3333;" parent="1" vertex="1">
                    <mxGeometry x="1100" y="345" width="60" height="30" as="geometry"/>
                </mxCell>
                <mxCell id="139" value="&lt;font&gt;10&lt;/font&gt;" style="text;html=1;strokeColor=none;fillColor=none;align=center;verticalAlign=middle;whiteSpace=wrap;rounded=0;fontColor=#000000;" parent="1" vertex="1">
                    <mxGeometry x="990" y="100" width="60" height="30" as="geometry"/>
                </mxCell>
                <mxCell id="142" value="DELETE test" style="text;html=1;strokeColor=none;fillColor=none;align=center;verticalAlign=middle;whiteSpace=wrap;rounded=0;fontColor=#000000;" parent="1" vertex="1">
                    <mxGeometry x="795" y="275" width="60" height="30" as="geometry"/>
                </mxCell>
                <mxCell id="151" style="edgeStyle=none;html=1;entryX=0.5;entryY=0;entryDx=0;entryDy=0;fontColor=#000033;fillColor=#fa6800;strokeColor=#C73500;" parent="1" source="144" target="103" edge="1">
                    <mxGeometry relative="1" as="geometry"/>
                </mxCell>
                <mxCell id="144" value="Set Timeout" style="text;html=1;strokeColor=none;fillColor=none;align=center;verticalAlign=middle;whiteSpace=wrap;rounded=0;fontColor=#000000;" parent="1" vertex="1">
                    <mxGeometry x="912" y="310" width="60" height="30" as="geometry"/>
                </mxCell>
                <mxCell id="150" value="11" style="text;html=1;strokeColor=none;fillColor=none;align=center;verticalAlign=middle;whiteSpace=wrap;rounded=0;fontColor=#000033;" parent="1" vertex="1">
                    <mxGeometry x="972" y="385" width="60" height="30" as="geometry"/>
                </mxCell>
                <mxCell id="154" style="edgeStyle=none;html=1;entryX=0;entryY=1;entryDx=0;entryDy=0;strokeWidth=2;fillColor=#f0a30a;strokeColor=#BD7000;" edge="1" parent="1" source="153" target="97">
                    <mxGeometry relative="1" as="geometry"/>
                </mxCell>
                <mxCell id="153" value="OverView&lt;br&gt;(infomation&lt;br&gt;candidate)" style="ellipse;whiteSpace=wrap;html=1;fillColor=#6a00ff;fontColor=#ffffff;strokeColor=#3700CC;" vertex="1" parent="1">
                    <mxGeometry x="696" y="356" width="94" height="59" as="geometry"/>
                </mxCell>
            </root>
        </mxGraphModel>
    </diagram>
</mxfile>